{
	"asset":{
		"generator":"Khronos glTF Blender I/O v4.1.63",
		"version":"2.0"
	},
	"scene":0,
	"scenes":[
		{
			"name":"Scene",
			"nodes":[
				0
			]
		}
	],
	"nodes":[
		{
			"mesh":0,
			"name":"Person",
			"scale":[
				0.11755704879760742,
				0.11755704879760742,
				0.11755704879760742
			]
		}
	],
	"materials":[
		{
			"doubleSided":true,
			"name":"Person_Base",
			"pbrMetallicRoughness":{
				"baseColorFactor":[
					0.800000011920929,
					0.800000011920929,
					0.800000011920929,
					1
				],
				"metallicFactor":0
			}
		},
		{
			"doubleSided":true,
			"name":"Person_Shirt.001",
			"pbrMetallicRoughness":{
				"baseColorFactor":[
					0.5146897435188293,
					0.8010854125022888,
					0.3080097734928131,
					1
				],
				"metallicFactor":0
			}
		},
		{
			"doubleSided":true,
			"name":"Person_Pants.001",
			"pbrMetallicRoughness":{
				"baseColorFactor":[
					0.10730748623609543,
					0.21165809035301208,
					0.06830791383981705,
					1
				],
				"metallicFactor":0
			}
		}
	],
	"meshes":[
		{
			"name":"Sphere",
			"primitives":[
				{
					"attributes":{
						"POSITION":0,
						"NORMAL":1,
						"TEXCOORD_0":2
					},
					"indices":3,
					"material":0
				},
				{
					"attributes":{
						"POSITION":4,
						"NORMAL":5,
						"TEXCOORD_0":6
					},
					"indices":7,
					"material":1
				},
				{
					"attributes":{
						"POSITION":8,
						"NORMAL":9,
						"TEXCOORD_0":10
					},
					"indices":11,
					"material":2
				}
			]
		}
	],
	"accessors":[
		{
			"bufferView":0,
			"componentType":5126,
			"count":158,
			"max":[
				1.3327614068984985,
				4.244410991668701,
				0.6536461114883423
			],
			"min":[
				-1.3327614068984985,
				0.9122608304023743,
				-0.6536461114883423
			],
			"type":"VEC3"
		},
		{
			"bufferView":1,
			"componentType":5126,
			"count":158,
			"type":"VEC3"
		},
		{
			"bufferView":2,
			"componentType":5126,
			"count":158,
			"type":"VEC2"
		},
		{
			"bufferView":3,
			"componentType":5123,
			"count":696,
			"type":"SCALAR"
		},
		{
			"bufferView":4,
			"componentType":5126,
			"count":52,
			"max":[
				0.5678046941757202,
				2.741685390472412,
				0.5283368825912476
			],
			"min":[
				-0.5678046941757202,
				1.3460874557495117,
				-0.5283605456352234
			],
			"type":"VEC3"
		},
		{
			"bufferView":5,
			"componentType":5126,
			"count":52,
			"type":"VEC3"
		},
		{
			"bufferView":6,
			"componentType":5126,
			"count":52,
			"type":"VEC2"
		},
		{
			"bufferView":7,
			"componentType":5123,
			"count":264,
			"type":"SCALAR"
		},
		{
			"bufferView":8,
			"componentType":5126,
			"count":39,
			"max":[
				0.5399395227432251,
				1.3460874557495117,
				0.4674277603626251
			],
			"min":[
				-0.5399395227432251,
				0.01929425448179245,
				-0.48601192235946655
			],
			"type":"VEC3"
		},
		{
			"bufferView":9,
			"componentType":5126,
			"count":39,
			"type":"VEC3"
		},
		{
			"bufferView":10,
			"componentType":5126,
			"count":39,
			"type":"VEC2"
		},
		{
			"bufferView":11,
			"componentType":5123,
			"count":192,
			"type":"SCALAR"
		}
	],
	"bufferViews":[
		{
			"buffer":0,
			"byteLength":1896,
			"byteOffset":0,
			"target":34962
		},
		{
			"buffer":0,
			"byteLength":1896,
			"byteOffset":1896,
			"target":34962
		},
		{
			"buffer":0,
			"byteLength":1264,
			"byteOffset":3792,
			"target":34962
		},
		{
			"buffer":0,
			"byteLength":1392,
			"byteOffset":5056,
			"target":34963
		},
		{
			"buffer":0,
			"byteLength":624,
			"byteOffset":6448,
			"target":34962
		},
		{
			"buffer":0,
			"byteLength":624,
			"byteOffset":7072,
			"target":34962
		},
		{
			"buffer":0,
			"byteLength":416,
			"byteOffset":7696,
			"target":34962
		},
		{
			"buffer":0,
			"byteLength":528,
			"byteOffset":8112,
			"target":34963
		},
		{
			"buffer":0,
			"byteLength":468,
			"byteOffset":8640,
			"target":34962
		},
		{
			"buffer":0,
			"byteLength":468,
			"byteOffset":9108,
			"target":34962
		},
		{
			"buffer":0,
			"byteLength":312,
			"byteOffset":9576,
			"target":34962
		},
		{
			"buffer":0,
			"byteLength":384,
			"byteOffset":9888,
			"target":34963
		}
	],
	"buffers":[
		{
			"byteLength":10272,
			"uri":"Agent_Person_2.bin"
		}
	]
}
