{
	"asset":{
		"generator":"Khronos glTF Blender I/O v4.1.63",
		"version":"2.0"
	},
	"scene":0,
	"scenes":[
		{
			"name":"Scene",
			"nodes":[
				8
			]
		}
	],
	"nodes":[
		{
			"name":"Arm.L",
			"rotation":[
				-9.82516667136224e-07,
				-5.1140119694537134e-08,
				-0.9883922338485718,
				0.15192361176013947
			],
			"scale":[
				1.0000016689300537,
				1,
				1
			],
			"translation":[
				0.08339342474937439,
				0.05080915987491608,
				9.556281099776243e-09
			]
		},
		{
			"name":"Head",
			"rotation":[
				0,
				-7.105427357601002e-15,
				0,
				1
			],
			"scale":[
				1,
				0.9999999403953552,
				1
			],
			"translation":[
				0,
				0.1064678281545639,
				0
			]
		},
		{
			"name":"Arm.R",
			"rotation":[
				-1.218167426486616e-06,
				1.4918619228865282e-08,
				0.9883922338485718,
				0.15192361176013947
			],
			"scale":[
				1.0000016689300537,
				1,
				1
			],
			"translation":[
				-0.08339342474937439,
				0.05080915987491608,
				-3.020880257054159e-08
			]
		},
		{
			"children":[
				0,
				1,
				2
			],
			"name":"Body1",
			"translation":[
				0,
				0.09727427363395691,
				0
			]
		},
		{
			"name":"Leg.L",
			"rotation":[
				1.1772499419748783e-06,
				-1.9161637965225964e-07,
				0.9992660880088806,
				0.038304246962070465
			],
			"scale":[
				1.0000085830688477,
				1,
				1
			],
			"translation":[
				0.04469243809580803,
				0.03053523600101471,
				-1.5464394209629972e-08
			]
		},
		{
			"name":"Leg.R",
			"rotation":[
				1.4154918517306214e-06,
				1.8248381650209922e-07,
				-0.9992660880088806,
				0.038304246962070465
			],
			"scale":[
				1.0000085830688477,
				1,
				1
			],
			"translation":[
				-0.04469243809580803,
				0.03053523600101471,
				-3.677540760804732e-08
			]
		},
		{
			"children":[
				3,
				4,
				5
			],
			"name":"Body0",
			"rotation":[
				0,
				1.1920928955078125e-07,
				0,
				1
			],
			"translation":[
				0,
				0.1275535672903061,
				0
			]
		},
		{
			"mesh":0,
			"name":"Person",
			"skin":0
		},
		{
			"children":[
				7,
				6
			],
			"name":"PersonRig"
		}
	],
	"animations":[
		{
			"channels":[
				{
					"sampler":0,
					"target":{
						"node":6,
						"path":"translation"
					}
				},
				{
					"sampler":1,
					"target":{
						"node":6,
						"path":"rotation"
					}
				},
				{
					"sampler":2,
					"target":{
						"node":6,
						"path":"scale"
					}
				},
				{
					"sampler":3,
					"target":{
						"node":3,
						"path":"translation"
					}
				},
				{
					"sampler":4,
					"target":{
						"node":3,
						"path":"rotation"
					}
				},
				{
					"sampler":5,
					"target":{
						"node":3,
						"path":"scale"
					}
				},
				{
					"sampler":6,
					"target":{
						"node":0,
						"path":"translation"
					}
				},
				{
					"sampler":7,
					"target":{
						"node":0,
						"path":"rotation"
					}
				},
				{
					"sampler":8,
					"target":{
						"node":0,
						"path":"scale"
					}
				},
				{
					"sampler":9,
					"target":{
						"node":1,
						"path":"translation"
					}
				},
				{
					"sampler":10,
					"target":{
						"node":1,
						"path":"rotation"
					}
				},
				{
					"sampler":11,
					"target":{
						"node":1,
						"path":"scale"
					}
				},
				{
					"sampler":12,
					"target":{
						"node":2,
						"path":"translation"
					}
				},
				{
					"sampler":13,
					"target":{
						"node":2,
						"path":"rotation"
					}
				},
				{
					"sampler":14,
					"target":{
						"node":2,
						"path":"scale"
					}
				},
				{
					"sampler":15,
					"target":{
						"node":4,
						"path":"translation"
					}
				},
				{
					"sampler":16,
					"target":{
						"node":4,
						"path":"rotation"
					}
				},
				{
					"sampler":17,
					"target":{
						"node":4,
						"path":"scale"
					}
				},
				{
					"sampler":18,
					"target":{
						"node":5,
						"path":"translation"
					}
				},
				{
					"sampler":19,
					"target":{
						"node":5,
						"path":"rotation"
					}
				},
				{
					"sampler":20,
					"target":{
						"node":5,
						"path":"scale"
					}
				}
			],
			"name":"Person.Idle",
			"samplers":[
				{
					"input":19,
					"interpolation":"LINEAR",
					"output":20
				},
				{
					"input":19,
					"interpolation":"LINEAR",
					"output":21
				},
				{
					"input":22,
					"interpolation":"STEP",
					"output":23
				},
				{
					"input":19,
					"interpolation":"LINEAR",
					"output":24
				},
				{
					"input":19,
					"interpolation":"LINEAR",
					"output":25
				},
				{
					"input":22,
					"interpolation":"STEP",
					"output":26
				},
				{
					"input":19,
					"interpolation":"LINEAR",
					"output":27
				},
				{
					"input":19,
					"interpolation":"LINEAR",
					"output":28
				},
				{
					"input":22,
					"interpolation":"STEP",
					"output":29
				},
				{
					"input":19,
					"interpolation":"LINEAR",
					"output":30
				},
				{
					"input":19,
					"interpolation":"LINEAR",
					"output":31
				},
				{
					"input":22,
					"interpolation":"STEP",
					"output":32
				},
				{
					"input":19,
					"interpolation":"LINEAR",
					"output":33
				},
				{
					"input":19,
					"interpolation":"LINEAR",
					"output":34
				},
				{
					"input":22,
					"interpolation":"STEP",
					"output":35
				},
				{
					"input":19,
					"interpolation":"LINEAR",
					"output":36
				},
				{
					"input":19,
					"interpolation":"LINEAR",
					"output":37
				},
				{
					"input":22,
					"interpolation":"STEP",
					"output":38
				},
				{
					"input":19,
					"interpolation":"LINEAR",
					"output":39
				},
				{
					"input":19,
					"interpolation":"LINEAR",
					"output":40
				},
				{
					"input":22,
					"interpolation":"STEP",
					"output":41
				}
			]
		},
		{
			"channels":[
				{
					"sampler":0,
					"target":{
						"node":6,
						"path":"translation"
					}
				},
				{
					"sampler":1,
					"target":{
						"node":6,
						"path":"rotation"
					}
				},
				{
					"sampler":2,
					"target":{
						"node":6,
						"path":"scale"
					}
				},
				{
					"sampler":3,
					"target":{
						"node":3,
						"path":"translation"
					}
				},
				{
					"sampler":4,
					"target":{
						"node":3,
						"path":"rotation"
					}
				},
				{
					"sampler":5,
					"target":{
						"node":3,
						"path":"scale"
					}
				},
				{
					"sampler":6,
					"target":{
						"node":0,
						"path":"translation"
					}
				},
				{
					"sampler":7,
					"target":{
						"node":0,
						"path":"rotation"
					}
				},
				{
					"sampler":8,
					"target":{
						"node":0,
						"path":"scale"
					}
				},
				{
					"sampler":9,
					"target":{
						"node":1,
						"path":"translation"
					}
				},
				{
					"sampler":10,
					"target":{
						"node":1,
						"path":"rotation"
					}
				},
				{
					"sampler":11,
					"target":{
						"node":1,
						"path":"scale"
					}
				},
				{
					"sampler":12,
					"target":{
						"node":2,
						"path":"translation"
					}
				},
				{
					"sampler":13,
					"target":{
						"node":2,
						"path":"rotation"
					}
				},
				{
					"sampler":14,
					"target":{
						"node":2,
						"path":"scale"
					}
				},
				{
					"sampler":15,
					"target":{
						"node":4,
						"path":"translation"
					}
				},
				{
					"sampler":16,
					"target":{
						"node":4,
						"path":"rotation"
					}
				},
				{
					"sampler":17,
					"target":{
						"node":4,
						"path":"scale"
					}
				},
				{
					"sampler":18,
					"target":{
						"node":5,
						"path":"translation"
					}
				},
				{
					"sampler":19,
					"target":{
						"node":5,
						"path":"rotation"
					}
				},
				{
					"sampler":20,
					"target":{
						"node":5,
						"path":"scale"
					}
				}
			],
			"name":"Person.Walk",
			"samplers":[
				{
					"input":19,
					"interpolation":"LINEAR",
					"output":42
				},
				{
					"input":19,
					"interpolation":"LINEAR",
					"output":43
				},
				{
					"input":22,
					"interpolation":"STEP",
					"output":44
				},
				{
					"input":19,
					"interpolation":"LINEAR",
					"output":45
				},
				{
					"input":19,
					"interpolation":"LINEAR",
					"output":46
				},
				{
					"input":22,
					"interpolation":"STEP",
					"output":47
				},
				{
					"input":22,
					"interpolation":"STEP",
					"output":48
				},
				{
					"input":19,
					"interpolation":"LINEAR",
					"output":49
				},
				{
					"input":22,
					"interpolation":"STEP",
					"output":50
				},
				{
					"input":19,
					"interpolation":"LINEAR",
					"output":51
				},
				{
					"input":22,
					"interpolation":"STEP",
					"output":52
				},
				{
					"input":22,
					"interpolation":"STEP",
					"output":53
				},
				{
					"input":22,
					"interpolation":"STEP",
					"output":54
				},
				{
					"input":19,
					"interpolation":"LINEAR",
					"output":55
				},
				{
					"input":22,
					"interpolation":"STEP",
					"output":56
				},
				{
					"input":22,
					"interpolation":"STEP",
					"output":57
				},
				{
					"input":19,
					"interpolation":"LINEAR",
					"output":58
				},
				{
					"input":22,
					"interpolation":"STEP",
					"output":59
				},
				{
					"input":22,
					"interpolation":"STEP",
					"output":60
				},
				{
					"input":19,
					"interpolation":"LINEAR",
					"output":61
				},
				{
					"input":22,
					"interpolation":"STEP",
					"output":62
				}
			]
		}
	],
	"materials":[
		{
			"doubleSided":true,
			"name":"Person_Base",
			"pbrMetallicRoughness":{
				"baseColorFactor":[
					0.800000011920929,
					0.800000011920929,
					0.800000011920929,
					1
				],
				"metallicFactor":0
			}
		},
		{
			"doubleSided":true,
			"name":"Person_Shirt",
			"pbrMetallicRoughness":{
				"baseColorFactor":[
					0.8008280992507935,
					0.4025425314903259,
					0.16429150104522705,
					1
				],
				"metallicFactor":0
			}
		},
		{
			"doubleSided":true,
			"name":"Person_Pants",
			"pbrMetallicRoughness":{
				"baseColorFactor":[
					0.21181169152259827,
					0.07170696556568146,
					0.07707969099283218,
					1
				],
				"metallicFactor":0
			}
		}
	],
	"meshes":[
		{
			"name":"Sphere",
			"primitives":[
				{
					"attributes":{
						"POSITION":0,
						"NORMAL":1,
						"TEXCOORD_0":2,
						"JOINTS_0":3,
						"WEIGHTS_0":4
					},
					"indices":5,
					"material":0
				},
				{
					"attributes":{
						"POSITION":6,
						"NORMAL":7,
						"TEXCOORD_0":8,
						"JOINTS_0":9,
						"WEIGHTS_0":10
					},
					"indices":11,
					"material":1
				},
				{
					"attributes":{
						"POSITION":12,
						"NORMAL":13,
						"TEXCOORD_0":14,
						"JOINTS_0":15,
						"WEIGHTS_0":16
					},
					"indices":17,
					"material":2
				}
			]
		}
	],
	"skins":[
		{
			"inverseBindMatrices":18,
			"joints":[
				6,
				3,
				0,
				1,
				2,
				4,
				5
			],
			"name":"PersonRig"
		}
	],
	"accessors":[
		{
			"bufferView":0,
			"componentType":5126,
			"count":158,
			"max":[
				0.15667550265789032,
				0.4989604353904724,
				0.07684070616960526
			],
			"min":[
				-0.15667550265789032,
				0.10724268853664398,
				-0.07684070616960526
			],
			"type":"VEC3"
		},
		{
			"bufferView":1,
			"componentType":5126,
			"count":158,
			"type":"VEC3"
		},
		{
			"bufferView":2,
			"componentType":5126,
			"count":158,
			"type":"VEC2"
		},
		{
			"bufferView":3,
			"componentType":5121,
			"count":158,
			"type":"VEC4"
		},
		{
			"bufferView":4,
			"componentType":5126,
			"count":158,
			"type":"VEC4"
		},
		{
			"bufferView":5,
			"componentType":5123,
			"count":696,
			"type":"SCALAR"
		},
		{
			"bufferView":6,
			"componentType":5126,
			"count":52,
			"max":[
				0.0667494460940361,
				0.32230445742607117,
				0.062109723687171936
			],
			"min":[
				-0.0667494460940361,
				0.15824206173419952,
				-0.06211250647902489
			],
			"type":"VEC3"
		},
		{
			"bufferView":7,
			"componentType":5126,
			"count":52,
			"type":"VEC3"
		},
		{
			"bufferView":8,
			"componentType":5126,
			"count":52,
			"type":"VEC2"
		},
		{
			"bufferView":9,
			"componentType":5121,
			"count":52,
			"type":"VEC4"
		},
		{
			"bufferView":10,
			"componentType":5126,
			"count":52,
			"type":"VEC4"
		},
		{
			"bufferView":11,
			"componentType":5123,
			"count":264,
			"type":"SCALAR"
		},
		{
			"bufferView":12,
			"componentType":5126,
			"count":39,
			"max":[
				0.06347369402647018,
				0.15824206173419952,
				0.054949428886175156
			],
			"min":[
				-0.06347369402647018,
				0.002268175594508648,
				-0.057134129106998444
			],
			"type":"VEC3"
		},
		{
			"bufferView":13,
			"componentType":5126,
			"count":39,
			"type":"VEC3"
		},
		{
			"bufferView":14,
			"componentType":5126,
			"count":39,
			"type":"VEC2"
		},
		{
			"bufferView":15,
			"componentType":5121,
			"count":39,
			"type":"VEC4"
		},
		{
			"bufferView":16,
			"componentType":5126,
			"count":39,
			"type":"VEC4"
		},
		{
			"bufferView":17,
			"componentType":5123,
			"count":192,
			"type":"SCALAR"
		},
		{
			"bufferView":18,
			"componentType":5126,
			"count":7,
			"type":"MAT4"
		},
		{
			"bufferView":19,
			"componentType":5126,
			"count":20,
			"max":[
				0.8333333333333334
			],
			"min":[
				0.041666666666666664
			],
			"type":"SCALAR"
		},
		{
			"bufferView":20,
			"componentType":5126,
			"count":20,
			"type":"VEC3"
		},
		{
			"bufferView":21,
			"componentType":5126,
			"count":20,
			"type":"VEC4"
		},
		{
			"bufferView":22,
			"componentType":5126,
			"count":2,
			"max":[
				0.8333333333333334
			],
			"min":[
				0.041666666666666664
			],
			"type":"SCALAR"
		},
		{
			"bufferView":23,
			"componentType":5126,
			"count":2,
			"type":"VEC3"
		},
		{
			"bufferView":24,
			"componentType":5126,
			"count":20,
			"type":"VEC3"
		},
		{
			"bufferView":25,
			"componentType":5126,
			"count":20,
			"type":"VEC4"
		},
		{
			"bufferView":26,
			"componentType":5126,
			"count":2,
			"type":"VEC3"
		},
		{
			"bufferView":27,
			"componentType":5126,
			"count":20,
			"type":"VEC3"
		},
		{
			"bufferView":28,
			"componentType":5126,
			"count":20,
			"type":"VEC4"
		},
		{
			"bufferView":29,
			"componentType":5126,
			"count":2,
			"type":"VEC3"
		},
		{
			"bufferView":30,
			"componentType":5126,
			"count":20,
			"type":"VEC3"
		},
		{
			"bufferView":31,
			"componentType":5126,
			"count":20,
			"type":"VEC4"
		},
		{
			"bufferView":32,
			"componentType":5126,
			"count":2,
			"type":"VEC3"
		},
		{
			"bufferView":33,
			"componentType":5126,
			"count":20,
			"type":"VEC3"
		},
		{
			"bufferView":34,
			"componentType":5126,
			"count":20,
			"type":"VEC4"
		},
		{
			"bufferView":35,
			"componentType":5126,
			"count":2,
			"type":"VEC3"
		},
		{
			"bufferView":36,
			"componentType":5126,
			"count":20,
			"type":"VEC3"
		},
		{
			"bufferView":37,
			"componentType":5126,
			"count":20,
			"type":"VEC4"
		},
		{
			"bufferView":38,
			"componentType":5126,
			"count":2,
			"type":"VEC3"
		},
		{
			"bufferView":39,
			"componentType":5126,
			"count":20,
			"type":"VEC3"
		},
		{
			"bufferView":40,
			"componentType":5126,
			"count":20,
			"type":"VEC4"
		},
		{
			"bufferView":41,
			"componentType":5126,
			"count":2,
			"type":"VEC3"
		},
		{
			"bufferView":42,
			"componentType":5126,
			"count":20,
			"type":"VEC3"
		},
		{
			"bufferView":43,
			"componentType":5126,
			"count":20,
			"type":"VEC4"
		},
		{
			"bufferView":44,
			"componentType":5126,
			"count":2,
			"type":"VEC3"
		},
		{
			"bufferView":45,
			"componentType":5126,
			"count":20,
			"type":"VEC3"
		},
		{
			"bufferView":46,
			"componentType":5126,
			"count":20,
			"type":"VEC4"
		},
		{
			"bufferView":47,
			"componentType":5126,
			"count":2,
			"type":"VEC3"
		},
		{
			"bufferView":48,
			"componentType":5126,
			"count":2,
			"type":"VEC3"
		},
		{
			"bufferView":49,
			"componentType":5126,
			"count":20,
			"type":"VEC4"
		},
		{
			"bufferView":50,
			"componentType":5126,
			"count":2,
			"type":"VEC3"
		},
		{
			"bufferView":51,
			"componentType":5126,
			"count":20,
			"type":"VEC3"
		},
		{
			"bufferView":52,
			"componentType":5126,
			"count":2,
			"type":"VEC4"
		},
		{
			"bufferView":53,
			"componentType":5126,
			"count":2,
			"type":"VEC3"
		},
		{
			"bufferView":54,
			"componentType":5126,
			"count":2,
			"type":"VEC3"
		},
		{
			"bufferView":55,
			"componentType":5126,
			"count":20,
			"type":"VEC4"
		},
		{
			"bufferView":56,
			"componentType":5126,
			"count":2,
			"type":"VEC3"
		},
		{
			"bufferView":57,
			"componentType":5126,
			"count":2,
			"type":"VEC3"
		},
		{
			"bufferView":58,
			"componentType":5126,
			"count":20,
			"type":"VEC4"
		},
		{
			"bufferView":59,
			"componentType":5126,
			"count":2,
			"type":"VEC3"
		},
		{
			"bufferView":60,
			"componentType":5126,
			"count":2,
			"type":"VEC3"
		},
		{
			"bufferView":61,
			"componentType":5126,
			"count":20,
			"type":"VEC4"
		},
		{
			"bufferView":62,
			"componentType":5126,
			"count":2,
			"type":"VEC3"
		}
	],
	"bufferViews":[
		{
			"buffer":0,
			"byteLength":1896,
			"byteOffset":0,
			"target":34962
		},
		{
			"buffer":0,
			"byteLength":1896,
			"byteOffset":1896,
			"target":34962
		},
		{
			"buffer":0,
			"byteLength":1264,
			"byteOffset":3792,
			"target":34962
		},
		{
			"buffer":0,
			"byteLength":632,
			"byteOffset":5056,
			"target":34962
		},
		{
			"buffer":0,
			"byteLength":2528,
			"byteOffset":5688,
			"target":34962
		},
		{
			"buffer":0,
			"byteLength":1392,
			"byteOffset":8216,
			"target":34963
		},
		{
			"buffer":0,
			"byteLength":624,
			"byteOffset":9608,
			"target":34962
		},
		{
			"buffer":0,
			"byteLength":624,
			"byteOffset":10232,
			"target":34962
		},
		{
			"buffer":0,
			"byteLength":416,
			"byteOffset":10856,
			"target":34962
		},
		{
			"buffer":0,
			"byteLength":208,
			"byteOffset":11272,
			"target":34962
		},
		{
			"buffer":0,
			"byteLength":832,
			"byteOffset":11480,
			"target":34962
		},
		{
			"buffer":0,
			"byteLength":528,
			"byteOffset":12312,
			"target":34963
		},
		{
			"buffer":0,
			"byteLength":468,
			"byteOffset":12840,
			"target":34962
		},
		{
			"buffer":0,
			"byteLength":468,
			"byteOffset":13308,
			"target":34962
		},
		{
			"buffer":0,
			"byteLength":312,
			"byteOffset":13776,
			"target":34962
		},
		{
			"buffer":0,
			"byteLength":156,
			"byteOffset":14088,
			"target":34962
		},
		{
			"buffer":0,
			"byteLength":624,
			"byteOffset":14244,
			"target":34962
		},
		{
			"buffer":0,
			"byteLength":384,
			"byteOffset":14868,
			"target":34963
		},
		{
			"buffer":0,
			"byteLength":448,
			"byteOffset":15252
		},
		{
			"buffer":0,
			"byteLength":80,
			"byteOffset":15700
		},
		{
			"buffer":0,
			"byteLength":240,
			"byteOffset":15780
		},
		{
			"buffer":0,
			"byteLength":320,
			"byteOffset":16020
		},
		{
			"buffer":0,
			"byteLength":8,
			"byteOffset":16340
		},
		{
			"buffer":0,
			"byteLength":24,
			"byteOffset":16348
		},
		{
			"buffer":0,
			"byteLength":240,
			"byteOffset":16372
		},
		{
			"buffer":0,
			"byteLength":320,
			"byteOffset":16612
		},
		{
			"buffer":0,
			"byteLength":24,
			"byteOffset":16932
		},
		{
			"buffer":0,
			"byteLength":240,
			"byteOffset":16956
		},
		{
			"buffer":0,
			"byteLength":320,
			"byteOffset":17196
		},
		{
			"buffer":0,
			"byteLength":24,
			"byteOffset":17516
		},
		{
			"buffer":0,
			"byteLength":240,
			"byteOffset":17540
		},
		{
			"buffer":0,
			"byteLength":320,
			"byteOffset":17780
		},
		{
			"buffer":0,
			"byteLength":24,
			"byteOffset":18100
		},
		{
			"buffer":0,
			"byteLength":240,
			"byteOffset":18124
		},
		{
			"buffer":0,
			"byteLength":320,
			"byteOffset":18364
		},
		{
			"buffer":0,
			"byteLength":24,
			"byteOffset":18684
		},
		{
			"buffer":0,
			"byteLength":240,
			"byteOffset":18708
		},
		{
			"buffer":0,
			"byteLength":320,
			"byteOffset":18948
		},
		{
			"buffer":0,
			"byteLength":24,
			"byteOffset":19268
		},
		{
			"buffer":0,
			"byteLength":240,
			"byteOffset":19292
		},
		{
			"buffer":0,
			"byteLength":320,
			"byteOffset":19532
		},
		{
			"buffer":0,
			"byteLength":24,
			"byteOffset":19852
		},
		{
			"buffer":0,
			"byteLength":240,
			"byteOffset":19876
		},
		{
			"buffer":0,
			"byteLength":320,
			"byteOffset":20116
		},
		{
			"buffer":0,
			"byteLength":24,
			"byteOffset":20436
		},
		{
			"buffer":0,
			"byteLength":240,
			"byteOffset":20460
		},
		{
			"buffer":0,
			"byteLength":320,
			"byteOffset":20700
		},
		{
			"buffer":0,
			"byteLength":24,
			"byteOffset":21020
		},
		{
			"buffer":0,
			"byteLength":24,
			"byteOffset":21044
		},
		{
			"buffer":0,
			"byteLength":320,
			"byteOffset":21068
		},
		{
			"buffer":0,
			"byteLength":24,
			"byteOffset":21388
		},
		{
			"buffer":0,
			"byteLength":240,
			"byteOffset":21412
		},
		{
			"buffer":0,
			"byteLength":32,
			"byteOffset":21652
		},
		{
			"buffer":0,
			"byteLength":24,
			"byteOffset":21684
		},
		{
			"buffer":0,
			"byteLength":24,
			"byteOffset":21708
		},
		{
			"buffer":0,
			"byteLength":320,
			"byteOffset":21732
		},
		{
			"buffer":0,
			"byteLength":24,
			"byteOffset":22052
		},
		{
			"buffer":0,
			"byteLength":24,
			"byteOffset":22076
		},
		{
			"buffer":0,
			"byteLength":320,
			"byteOffset":22100
		},
		{
			"buffer":0,
			"byteLength":24,
			"byteOffset":22420
		},
		{
			"buffer":0,
			"byteLength":24,
			"byteOffset":22444
		},
		{
			"buffer":0,
			"byteLength":320,
			"byteOffset":22468
		},
		{
			"buffer":0,
			"byteLength":24,
			"byteOffset":22788
		}
	],
	"buffers":[
		{
			"byteLength":22812,
			"uri":"Agent_Person_1.bin"
		}
	]
}
