{
	"asset":{
		"generator":"Khronos glTF Blender I/O v4.1.63",
		"version":"2.0"
	},
	"scene":0,
	"scenes":[
		{
			"name":"Scene",
			"nodes":[
				0
			]
		}
	],
	"nodes":[
		{
			"mesh":0,
			"name":"MiscParkingLotEmpty"
		}
	],
	"materials":[
		{
			"doubleSided":true,
			"name":"ParkingLotPaint",
			"pbrMetallicRoughness":{
				"baseColorFactor":[
					0.7445796132087708,
					0.5683145523071289,
					0.016651462763547897,
					1
				],
				"metallicFactor":0
			}
		}
	],
	"meshes":[
		{
			"name":"Plane.007",
			"primitives":[
				{
					"attributes":{
						"POSITION":0,
						"NORMAL":1,
						"TEXCOORD_0":2,
						"TEXCOORD_1":3
					},
					"indices":4,
					"material":0
				}
			]
		}
	],
	"accessors":[
		{
			"bufferView":0,
			"componentType":5126,
			"count":60,
			"max":[
				0.44695428013801575,
				0.005735347978770733,
				0.452960729598999
			],
			"min":[
				-0.44695428013801575,
				0.005735347978770733,
				-0.4538445472717285
			],
			"type":"VEC3"
		},
		{
			"bufferView":1,
			"componentType":5126,
			"count":60,
			"type":"VEC3"
		},
		{
			"bufferView":2,
			"componentType":5126,
			"count":60,
			"type":"VEC2"
		},
		{
			"bufferView":3,
			"componentType":5126,
			"count":60,
			"type":"VEC2"
		},
		{
			"bufferView":4,
			"componentType":5123,
			"count":96,
			"type":"SCALAR"
		}
	],
	"bufferViews":[
		{
			"buffer":0,
			"byteLength":720,
			"byteOffset":0,
			"target":34962
		},
		{
			"buffer":0,
			"byteLength":720,
			"byteOffset":720,
			"target":34962
		},
		{
			"buffer":0,
			"byteLength":480,
			"byteOffset":1440,
			"target":34962
		},
		{
			"buffer":0,
			"byteLength":480,
			"byteOffset":1920,
			"target":34962
		},
		{
			"buffer":0,
			"byteLength":192,
			"byteOffset":2400,
			"target":34963
		}
	],
	"buffers":[
		{
			"byteLength":2592,
			"uri":"Tile_Misc_ParkingLotEmpty.bin"
		}
	]
}
