{
	"asset":{
		"generator":"Khronos glTF Blender I/O v4.1.63",
		"version":"2.0"
	},
	"scene":0,
	"scenes":[
		{
			"name":"Scene",
			"nodes":[
				0
			]
		}
	],
	"nodes":[
		{
			"mesh":0,
			"name":"MiscParkingLot"
		}
	],
	"materials":[
		{
			"doubleSided":true,
			"name":"ParkingLotPaint",
			"pbrMetallicRoughness":{
				"baseColorFactor":[
					0.7445796132087708,
					0.5683145523071289,
					0.016651462763547897,
					1
				],
				"metallicFactor":0
			}
		},
		{
			"doubleSided":true,
			"name":"MAT_Car_Metal_1",
			"pbrMetallicRoughness":{
				"baseColorFactor":[
					0.20904511213302612,
					0.24300000071525574,
					0.20096100866794586,
					1
				],
				"metallicFactor":0,
				"roughnessFactor":0.5527864098548889
			}
		},
		{
			"doubleSided":true,
			"name":"MAT_Car_Glass",
			"pbrMetallicRoughness":{
				"baseColorFactor":[
					0.3300040066242218,
					0.421999990940094,
					0.41492241621017456,
					1
				],
				"metallicFactor":0,
				"roughnessFactor":0.5527864098548889
			}
		},
		{
			"doubleSided":true,
			"name":"MAT_Car_A_Paint.003",
			"pbrMetallicRoughness":{
				"baseColorFactor":[
					0.2720000147819519,
					0.2534846365451813,
					0.03128000348806381,
					1
				],
				"metallicFactor":0,
				"roughnessFactor":0.5527864098548889
			}
		},
		{
			"doubleSided":true,
			"name":"MAT_Car_Wheels",
			"pbrMetallicRoughness":{
				"baseColorFactor":[
					0.019999999552965164,
					0.019999999552965164,
					0.019999999552965164,
					1
				],
				"metallicFactor":0,
				"roughnessFactor":0.5527864098548889
			}
		},
		{
			"doubleSided":true,
			"name":"MAT_Car_Light_1",
			"pbrMetallicRoughness":{
				"baseColorFactor":[
					0.7020000219345093,
					0.6604774594306946,
					0.16216200590133667,
					1
				],
				"metallicFactor":0,
				"roughnessFactor":0.5527864098548889
			}
		},
		{
			"doubleSided":true,
			"name":"MAT_Car_A_Paint",
			"pbrMetallicRoughness":{
				"baseColorFactor":[
					0.45100000500679016,
					0.06945399194955826,
					0.06945399194955826,
					1
				],
				"metallicFactor":0,
				"roughnessFactor":0.5527864098548889
			}
		},
		{
			"doubleSided":true,
			"name":"MAT_Car_A_Paint.001",
			"pbrMetallicRoughness":{
				"baseColorFactor":[
					0.02677999436855316,
					0.107509084045887,
					0.25999999046325684,
					1
				],
				"metallicFactor":0,
				"roughnessFactor":0.5527864098548889
			}
		},
		{
			"doubleSided":true,
			"name":"MAT_Car_A_Paint.002",
			"pbrMetallicRoughness":{
				"baseColorFactor":[
					0.12060749530792236,
					0.19499999284744263,
					0.0462149977684021,
					1
				],
				"metallicFactor":0,
				"roughnessFactor":0.5527864098548889
			}
		}
	],
	"meshes":[
		{
			"name":"Plane.005",
			"primitives":[
				{
					"attributes":{
						"POSITION":0,
						"NORMAL":1,
						"TEXCOORD_0":2,
						"TEXCOORD_1":3
					},
					"indices":4,
					"material":0
				},
				{
					"attributes":{
						"POSITION":5,
						"NORMAL":6,
						"TEXCOORD_0":7,
						"TEXCOORD_1":8
					},
					"indices":9,
					"material":1
				},
				{
					"attributes":{
						"POSITION":10,
						"NORMAL":11,
						"TEXCOORD_0":12,
						"TEXCOORD_1":13
					},
					"indices":14,
					"material":2
				},
				{
					"attributes":{
						"POSITION":15,
						"NORMAL":16,
						"TEXCOORD_0":17,
						"TEXCOORD_1":18
					},
					"indices":19,
					"material":3
				},
				{
					"attributes":{
						"POSITION":20,
						"NORMAL":21,
						"TEXCOORD_0":22,
						"TEXCOORD_1":23
					},
					"indices":24,
					"material":4
				},
				{
					"attributes":{
						"POSITION":25,
						"NORMAL":26,
						"TEXCOORD_0":27,
						"TEXCOORD_1":28
					},
					"indices":29,
					"material":5
				},
				{
					"attributes":{
						"POSITION":30,
						"NORMAL":31,
						"TEXCOORD_0":32,
						"TEXCOORD_1":33
					},
					"indices":34,
					"material":6
				},
				{
					"attributes":{
						"POSITION":35,
						"NORMAL":36,
						"TEXCOORD_0":37,
						"TEXCOORD_1":38
					},
					"indices":39,
					"material":7
				},
				{
					"attributes":{
						"POSITION":40,
						"NORMAL":41,
						"TEXCOORD_0":42,
						"TEXCOORD_1":43
					},
					"indices":44,
					"material":8
				}
			]
		}
	],
	"accessors":[
		{
			"bufferView":0,
			"componentType":5126,
			"count":60,
			"max":[
				0.44695428013801575,
				0.005735347978770733,
				0.452960729598999
			],
			"min":[
				-0.44695428013801575,
				0.005735347978770733,
				-0.4538445472717285
			],
			"type":"VEC3"
		},
		{
			"bufferView":1,
			"componentType":5126,
			"count":60,
			"type":"VEC3"
		},
		{
			"bufferView":2,
			"componentType":5126,
			"count":60,
			"type":"VEC2"
		},
		{
			"bufferView":3,
			"componentType":5126,
			"count":60,
			"type":"VEC2"
		},
		{
			"bufferView":4,
			"componentType":5123,
			"count":96,
			"type":"SCALAR"
		},
		{
			"bufferView":5,
			"componentType":5126,
			"count":5375,
			"max":[
				0.41036731004714966,
				0.10346493870019913,
				0.4939953684806824
			],
			"min":[
				-0.4119134843349457,
				0.008642702363431454,
				-0.49728673696517944
			],
			"type":"VEC3"
		},
		{
			"bufferView":6,
			"componentType":5126,
			"count":5375,
			"type":"VEC3"
		},
		{
			"bufferView":7,
			"componentType":5126,
			"count":5375,
			"type":"VEC2"
		},
		{
			"bufferView":8,
			"componentType":5126,
			"count":5375,
			"type":"VEC2"
		},
		{
			"bufferView":9,
			"componentType":5123,
			"count":12933,
			"type":"SCALAR"
		},
		{
			"bufferView":10,
			"componentType":5126,
			"count":297,
			"max":[
				0.41402676701545715,
				0.15803581476211548,
				0.42327821254730225
			],
			"min":[
				-0.41534411907196045,
				0.06158476322889328,
				-0.42656952142715454
			],
			"type":"VEC3"
		},
		{
			"bufferView":11,
			"componentType":5126,
			"count":297,
			"type":"VEC3"
		},
		{
			"bufferView":12,
			"componentType":5126,
			"count":297,
			"type":"VEC2"
		},
		{
			"bufferView":13,
			"componentType":5126,
			"count":297,
			"type":"VEC2"
		},
		{
			"bufferView":14,
			"componentType":5123,
			"count":462,
			"type":"SCALAR"
		},
		{
			"bufferView":15,
			"componentType":5126,
			"count":776,
			"max":[
				0.4126441180706024,
				0.1646287441253662,
				0.4627608060836792
			],
			"min":[
				-0.41654691100120544,
				0.019000709056854248,
				-0.23389914631843567
			],
			"type":"VEC3"
		},
		{
			"bufferView":16,
			"componentType":5126,
			"count":776,
			"type":"VEC3"
		},
		{
			"bufferView":17,
			"componentType":5126,
			"count":776,
			"type":"VEC2"
		},
		{
			"bufferView":18,
			"componentType":5126,
			"count":776,
			"type":"VEC2"
		},
		{
			"bufferView":19,
			"componentType":5123,
			"count":1914,
			"type":"SCALAR"
		},
		{
			"bufferView":20,
			"componentType":5126,
			"count":3212,
			"max":[
				0.41168805956840515,
				0.04855068027973175,
				0.4385461211204529
			],
			"min":[
				-0.4130704700946808,
				0.0021749946754425764,
				-0.4418375492095947
			],
			"type":"VEC3"
		},
		{
			"bufferView":21,
			"componentType":5126,
			"count":3212,
			"type":"VEC3"
		},
		{
			"bufferView":22,
			"componentType":5126,
			"count":3212,
			"type":"VEC2"
		},
		{
			"bufferView":23,
			"componentType":5126,
			"count":3212,
			"type":"VEC2"
		},
		{
			"bufferView":24,
			"componentType":5123,
			"count":11616,
			"type":"SCALAR"
		},
		{
			"bufferView":25,
			"componentType":5126,
			"count":391,
			"max":[
				0.4011646807193756,
				0.06271670758724213,
				0.46792203187942505
			],
			"min":[
				-0.40113383531570435,
				0.04061181843280792,
				-0.4712134003639221
			],
			"type":"VEC3"
		},
		{
			"bufferView":26,
			"componentType":5126,
			"count":391,
			"type":"VEC3"
		},
		{
			"bufferView":27,
			"componentType":5126,
			"count":391,
			"type":"VEC2"
		},
		{
			"bufferView":28,
			"componentType":5126,
			"count":391,
			"type":"VEC2"
		},
		{
			"bufferView":29,
			"componentType":5123,
			"count":1026,
			"type":"SCALAR"
		},
		{
			"bufferView":30,
			"componentType":5126,
			"count":1552,
			"max":[
				0.413876473903656,
				0.1646287441253662,
				0.4702904224395752
			],
			"min":[
				-0.23849140107631683,
				0.01900070533156395,
				-0.4711744785308838
			],
			"type":"VEC3"
		},
		{
			"bufferView":31,
			"componentType":5126,
			"count":1552,
			"type":"VEC3"
		},
		{
			"bufferView":32,
			"componentType":5126,
			"count":1552,
			"type":"VEC2"
		},
		{
			"bufferView":33,
			"componentType":5126,
			"count":1552,
			"type":"VEC2"
		},
		{
			"bufferView":34,
			"componentType":5123,
			"count":3828,
			"type":"SCALAR"
		},
		{
			"bufferView":35,
			"componentType":5126,
			"count":1164,
			"max":[
				0.415222704410553,
				0.1646287441253662,
				0.47007328271865845
			],
			"min":[
				-0.41522276401519775,
				0.019000709056854248,
				-0.47336459159851074
			],
			"type":"VEC3"
		},
		{
			"bufferView":36,
			"componentType":5126,
			"count":1164,
			"type":"VEC3"
		},
		{
			"bufferView":37,
			"componentType":5126,
			"count":1164,
			"type":"VEC2"
		},
		{
			"bufferView":38,
			"componentType":5126,
			"count":1164,
			"type":"VEC2"
		},
		{
			"bufferView":39,
			"componentType":5123,
			"count":2871,
			"type":"SCALAR"
		},
		{
			"bufferView":40,
			"componentType":5126,
			"count":776,
			"max":[
				0.24032609164714813,
				0.1646287441253662,
				0.21687500178813934
			],
			"min":[
				-0.06697455793619156,
				0.019000709056854248,
				-0.22584277391433716
			],
			"type":"VEC3"
		},
		{
			"bufferView":41,
			"componentType":5126,
			"count":776,
			"type":"VEC3"
		},
		{
			"bufferView":42,
			"componentType":5126,
			"count":776,
			"type":"VEC2"
		},
		{
			"bufferView":43,
			"componentType":5126,
			"count":776,
			"type":"VEC2"
		},
		{
			"bufferView":44,
			"componentType":5123,
			"count":1914,
			"type":"SCALAR"
		}
	],
	"bufferViews":[
		{
			"buffer":0,
			"byteLength":720,
			"byteOffset":0,
			"target":34962
		},
		{
			"buffer":0,
			"byteLength":720,
			"byteOffset":720,
			"target":34962
		},
		{
			"buffer":0,
			"byteLength":480,
			"byteOffset":1440,
			"target":34962
		},
		{
			"buffer":0,
			"byteLength":480,
			"byteOffset":1920,
			"target":34962
		},
		{
			"buffer":0,
			"byteLength":192,
			"byteOffset":2400,
			"target":34963
		},
		{
			"buffer":0,
			"byteLength":64500,
			"byteOffset":2592,
			"target":34962
		},
		{
			"buffer":0,
			"byteLength":64500,
			"byteOffset":67092,
			"target":34962
		},
		{
			"buffer":0,
			"byteLength":43000,
			"byteOffset":131592,
			"target":34962
		},
		{
			"buffer":0,
			"byteLength":43000,
			"byteOffset":174592,
			"target":34962
		},
		{
			"buffer":0,
			"byteLength":25866,
			"byteOffset":217592,
			"target":34963
		},
		{
			"buffer":0,
			"byteLength":3564,
			"byteOffset":243460,
			"target":34962
		},
		{
			"buffer":0,
			"byteLength":3564,
			"byteOffset":247024,
			"target":34962
		},
		{
			"buffer":0,
			"byteLength":2376,
			"byteOffset":250588,
			"target":34962
		},
		{
			"buffer":0,
			"byteLength":2376,
			"byteOffset":252964,
			"target":34962
		},
		{
			"buffer":0,
			"byteLength":924,
			"byteOffset":255340,
			"target":34963
		},
		{
			"buffer":0,
			"byteLength":9312,
			"byteOffset":256264,
			"target":34962
		},
		{
			"buffer":0,
			"byteLength":9312,
			"byteOffset":265576,
			"target":34962
		},
		{
			"buffer":0,
			"byteLength":6208,
			"byteOffset":274888,
			"target":34962
		},
		{
			"buffer":0,
			"byteLength":6208,
			"byteOffset":281096,
			"target":34962
		},
		{
			"buffer":0,
			"byteLength":3828,
			"byteOffset":287304,
			"target":34963
		},
		{
			"buffer":0,
			"byteLength":38544,
			"byteOffset":291132,
			"target":34962
		},
		{
			"buffer":0,
			"byteLength":38544,
			"byteOffset":329676,
			"target":34962
		},
		{
			"buffer":0,
			"byteLength":25696,
			"byteOffset":368220,
			"target":34962
		},
		{
			"buffer":0,
			"byteLength":25696,
			"byteOffset":393916,
			"target":34962
		},
		{
			"buffer":0,
			"byteLength":23232,
			"byteOffset":419612,
			"target":34963
		},
		{
			"buffer":0,
			"byteLength":4692,
			"byteOffset":442844,
			"target":34962
		},
		{
			"buffer":0,
			"byteLength":4692,
			"byteOffset":447536,
			"target":34962
		},
		{
			"buffer":0,
			"byteLength":3128,
			"byteOffset":452228,
			"target":34962
		},
		{
			"buffer":0,
			"byteLength":3128,
			"byteOffset":455356,
			"target":34962
		},
		{
			"buffer":0,
			"byteLength":2052,
			"byteOffset":458484,
			"target":34963
		},
		{
			"buffer":0,
			"byteLength":18624,
			"byteOffset":460536,
			"target":34962
		},
		{
			"buffer":0,
			"byteLength":18624,
			"byteOffset":479160,
			"target":34962
		},
		{
			"buffer":0,
			"byteLength":12416,
			"byteOffset":497784,
			"target":34962
		},
		{
			"buffer":0,
			"byteLength":12416,
			"byteOffset":510200,
			"target":34962
		},
		{
			"buffer":0,
			"byteLength":7656,
			"byteOffset":522616,
			"target":34963
		},
		{
			"buffer":0,
			"byteLength":13968,
			"byteOffset":530272,
			"target":34962
		},
		{
			"buffer":0,
			"byteLength":13968,
			"byteOffset":544240,
			"target":34962
		},
		{
			"buffer":0,
			"byteLength":9312,
			"byteOffset":558208,
			"target":34962
		},
		{
			"buffer":0,
			"byteLength":9312,
			"byteOffset":567520,
			"target":34962
		},
		{
			"buffer":0,
			"byteLength":5742,
			"byteOffset":576832,
			"target":34963
		},
		{
			"buffer":0,
			"byteLength":9312,
			"byteOffset":582576,
			"target":34962
		},
		{
			"buffer":0,
			"byteLength":9312,
			"byteOffset":591888,
			"target":34962
		},
		{
			"buffer":0,
			"byteLength":6208,
			"byteOffset":601200,
			"target":34962
		},
		{
			"buffer":0,
			"byteLength":6208,
			"byteOffset":607408,
			"target":34962
		},
		{
			"buffer":0,
			"byteLength":3828,
			"byteOffset":613616,
			"target":34963
		}
	],
	"buffers":[
		{
			"byteLength":617444,
			"uri":"Tile_Misc_ParkingLot.bin"
		}
	]
}
