{
	"asset":{
		"generator":"Khronos glTF Blender I/O v4.1.63",
		"version":"2.0"
	},
	"scene":0,
	"scenes":[
		{
			"name":"Scene",
			"nodes":[
				0
			]
		}
	],
	"nodes":[
		{
			"mesh":0,
			"name":"BikelaneIntersection",
			"translation":[
				0,
				-0.19999998807907104,
				0
			]
		}
	],
	"materials":[
		{
			"doubleSided":true,
			"name":"BikeLane",
			"pbrMetallicRoughness":{
				"baseColorFactor":[
					0.042443759739398956,
					0.34156107902526855,
					0.0415477529168129,
					1
				],
				"metallicFactor":0,
				"roughnessFactor":0.5
			}
		}
	],
	"meshes":[
		{
			"name":"Cube.044",
			"primitives":[
				{
					"attributes":{
						"POSITION":0,
						"NORMAL":1,
						"TEXCOORD_0":2
					},
					"indices":3,
					"material":0
				}
			]
		}
	],
	"accessors":[
		{
			"bufferView":0,
			"componentType":5126,
			"count":924,
			"max":[
				0.5,
				0.384316086769104,
				0.5
			],
			"min":[
				-0.5,
				0.3827824294567108,
				-0.5
			],
			"type":"VEC3"
		},
		{
			"bufferView":1,
			"componentType":5126,
			"count":924,
			"type":"VEC3"
		},
		{
			"bufferView":2,
			"componentType":5126,
			"count":924,
			"type":"VEC2"
		},
		{
			"bufferView":3,
			"componentType":5123,
			"count":1560,
			"type":"SCALAR"
		}
	],
	"bufferViews":[
		{
			"buffer":0,
			"byteLength":11088,
			"byteOffset":0,
			"target":34962
		},
		{
			"buffer":0,
			"byteLength":11088,
			"byteOffset":11088,
			"target":34962
		},
		{
			"buffer":0,
			"byteLength":7392,
			"byteOffset":22176,
			"target":34962
		},
		{
			"buffer":0,
			"byteLength":3120,
			"byteOffset":29568,
			"target":34963
		}
	],
	"buffers":[
		{
			"byteLength":32688,
			"uri":"Tile_Bikelane_Intersection.bin"
		}
	]
}
