{
	"asset":{
		"generator":"Khronos glTF Blender I/O v4.1.63",
		"version":"2.0"
	},
	"scene":0,
	"scenes":[
		{
			"name":"Scene",
			"nodes":[
				0
			]
		}
	],
	"nodes":[
		{
			"mesh":0,
			"name":"LightpostLarger",
			"translation":[
				-0.0016379940789192915,
				0.19999998807907104,
				0
			]
		}
	],
	"materials":[
		{
			"doubleSided":true,
			"name":"LightpostMat",
			"pbrMetallicRoughness":{
				"baseColorFactor":[
					0.042244262993335724,
					0.042244262993335724,
					0.042244262993335724,
					1
				],
				"metallicFactor":0
			}
		},
		{
			"doubleSided":true,
			"name":"LightpostLightMat",
			"pbrMetallicRoughness":{
				"baseColorFactor":[
					0.800000011920929,
					0.800000011920929,
					0.800000011920929,
					1
				],
				"metallicFactor":0,
				"roughnessFactor":0.5
			}
		}
	],
	"meshes":[
		{
			"name":"Cube.041",
			"primitives":[
				{
					"attributes":{
						"POSITION":0,
						"NORMAL":1,
						"TEXCOORD_0":2
					},
					"indices":3,
					"material":0
				},
				{
					"attributes":{
						"POSITION":4,
						"NORMAL":5,
						"TEXCOORD_0":6
					},
					"indices":7,
					"material":1
				}
			]
		}
	],
	"accessors":[
		{
			"bufferView":0,
			"componentType":5126,
			"count":156,
			"max":[
				-0.3924085795879364,
				0.332326740026474,
				0.024015700444579124
			],
			"min":[
				-0.49806004762649536,
				-0.02010137215256691,
				-0.02401563711464405
			],
			"type":"VEC3"
		},
		{
			"bufferView":1,
			"componentType":5126,
			"count":156,
			"type":"VEC3"
		},
		{
			"bufferView":2,
			"componentType":5126,
			"count":156,
			"type":"VEC2"
		},
		{
			"bufferView":3,
			"componentType":5123,
			"count":234,
			"type":"SCALAR"
		},
		{
			"bufferView":4,
			"componentType":5126,
			"count":12,
			"max":[
				-0.3924085795879364,
				0.3113192915916443,
				0.011775289662182331
			],
			"min":[
				-0.41957738995552063,
				0.3111874759197235,
				-0.011775226332247257
			],
			"type":"VEC3"
		},
		{
			"bufferView":5,
			"componentType":5126,
			"count":12,
			"type":"VEC3"
		},
		{
			"bufferView":6,
			"componentType":5126,
			"count":12,
			"type":"VEC2"
		},
		{
			"bufferView":7,
			"componentType":5123,
			"count":18,
			"type":"SCALAR"
		}
	],
	"bufferViews":[
		{
			"buffer":0,
			"byteLength":1872,
			"byteOffset":0,
			"target":34962
		},
		{
			"buffer":0,
			"byteLength":1872,
			"byteOffset":1872,
			"target":34962
		},
		{
			"buffer":0,
			"byteLength":1248,
			"byteOffset":3744,
			"target":34962
		},
		{
			"buffer":0,
			"byteLength":468,
			"byteOffset":4992,
			"target":34963
		},
		{
			"buffer":0,
			"byteLength":144,
			"byteOffset":5460,
			"target":34962
		},
		{
			"buffer":0,
			"byteLength":144,
			"byteOffset":5604,
			"target":34962
		},
		{
			"buffer":0,
			"byteLength":96,
			"byteOffset":5748,
			"target":34962
		},
		{
			"buffer":0,
			"byteLength":36,
			"byteOffset":5844,
			"target":34963
		}
	],
	"buffers":[
		{
			"byteLength":5880,
			"uri":"Tile_Lightpost_Larger.bin"
		}
	]
}
