{
	"asset":{
		"generator":"Khronos glTF Blender I/O v4.1.63",
		"version":"2.0"
	},
	"scene":0,
	"scenes":[
		{
			"name":"Scene",
			"nodes":[
				0
			]
		}
	],
	"nodes":[
		{
			"mesh":0,
			"name":"MiscSingleTree"
		}
	],
	"materials":[
		{
			"doubleSided":true,
			"name":"Tree.Leaves",
			"pbrMetallicRoughness":{
				"baseColorFactor":[
					0.2949512004852295,
					0.5443484783172607,
					0.14333809912204742,
					1
				],
				"metallicFactor":0,
				"roughnessFactor":0.5
			}
		},
		{
			"doubleSided":true,
			"name":"Tree.Trunk",
			"pbrMetallicRoughness":{
				"baseColorFactor":[
					0.3132612705230713,
					0.18297220766544342,
					0.17227640748023987,
					1
				],
				"metallicFactor":0
			}
		}
	],
	"meshes":[
		{
			"name":"Cube.006",
			"primitives":[
				{
					"attributes":{
						"POSITION":0,
						"NORMAL":1,
						"TEXCOORD_0":2
					},
					"indices":3,
					"material":0
				},
				{
					"attributes":{
						"POSITION":4,
						"NORMAL":5,
						"TEXCOORD_0":6
					},
					"indices":7,
					"material":1
				}
			]
		}
	],
	"accessors":[
		{
			"bufferView":0,
			"componentType":5126,
			"count":80,
			"max":[
				0.1356324553489685,
				0.6815311312675476,
				0.15450641512870789
			],
			"min":[
				-0.1561899185180664,
				0.28624895215034485,
				-0.17729108035564423
			],
			"type":"VEC3"
		},
		{
			"bufferView":1,
			"componentType":5126,
			"count":80,
			"type":"VEC3"
		},
		{
			"bufferView":2,
			"componentType":5126,
			"count":80,
			"type":"VEC2"
		},
		{
			"bufferView":3,
			"componentType":5123,
			"count":96,
			"type":"SCALAR"
		},
		{
			"bufferView":4,
			"componentType":5126,
			"count":148,
			"max":[
				0.08914630860090256,
				0.4786807596683502,
				0.1027512475848198
			],
			"min":[
				-0.06802177429199219,
				-0.006656345911324024,
				-0.07752172648906708
			],
			"type":"VEC3"
		},
		{
			"bufferView":5,
			"componentType":5126,
			"count":148,
			"type":"VEC3"
		},
		{
			"bufferView":6,
			"componentType":5126,
			"count":148,
			"type":"VEC2"
		},
		{
			"bufferView":7,
			"componentType":5123,
			"count":222,
			"type":"SCALAR"
		}
	],
	"bufferViews":[
		{
			"buffer":0,
			"byteLength":960,
			"byteOffset":0,
			"target":34962
		},
		{
			"buffer":0,
			"byteLength":960,
			"byteOffset":960,
			"target":34962
		},
		{
			"buffer":0,
			"byteLength":640,
			"byteOffset":1920,
			"target":34962
		},
		{
			"buffer":0,
			"byteLength":192,
			"byteOffset":2560,
			"target":34963
		},
		{
			"buffer":0,
			"byteLength":1776,
			"byteOffset":2752,
			"target":34962
		},
		{
			"buffer":0,
			"byteLength":1776,
			"byteOffset":4528,
			"target":34962
		},
		{
			"buffer":0,
			"byteLength":1184,
			"byteOffset":6304,
			"target":34962
		},
		{
			"buffer":0,
			"byteLength":444,
			"byteOffset":7488,
			"target":34963
		}
	],
	"buffers":[
		{
			"byteLength":7932,
			"uri":"Tile_Misc_Tree03.bin"
		}
	]
}
