{
	"asset":{
		"generator":"Khronos glTF Blender I/O v4.1.63",
		"version":"2.0"
	},
	"scene":0,
	"scenes":[
		{
			"name":"Scene",
			"nodes":[
				0
			]
		}
	],
	"nodes":[
		{
			"mesh":0,
			"name":"MiscTrees1"
		}
	],
	"materials":[
		{
			"doubleSided":true,
			"name":"Tree.Leaves",
			"pbrMetallicRoughness":{
				"baseColorFactor":[
					0.2949512004852295,
					0.5443484783172607,
					0.14333809912204742,
					1
				],
				"metallicFactor":0,
				"roughnessFactor":0.5
			}
		},
		{
			"doubleSided":true,
			"name":"Tree.Trunk",
			"pbrMetallicRoughness":{
				"baseColorFactor":[
					0.3132612705230713,
					0.18297220766544342,
					0.17227640748023987,
					1
				],
				"metallicFactor":0
			}
		}
	],
	"meshes":[
		{
			"name":"Cube.011",
			"primitives":[
				{
					"attributes":{
						"POSITION":0,
						"NORMAL":1,
						"TEXCOORD_0":2
					},
					"indices":3,
					"material":0
				},
				{
					"attributes":{
						"POSITION":4,
						"NORMAL":5,
						"TEXCOORD_0":6
					},
					"indices":7,
					"material":1
				}
			]
		}
	],
	"accessors":[
		{
			"bufferView":0,
			"componentType":5126,
			"count":374,
			"max":[
				0.4371297359466553,
				0.8235690593719482,
				0.43817299604415894
			],
			"min":[
				-0.44203370809555054,
				0.25870203971862793,
				-0.4741109609603882
			],
			"type":"VEC3"
		},
		{
			"bufferView":1,
			"componentType":5126,
			"count":374,
			"type":"VEC3"
		},
		{
			"bufferView":2,
			"componentType":5126,
			"count":374,
			"type":"VEC2"
		},
		{
			"bufferView":3,
			"componentType":5123,
			"count":450,
			"type":"SCALAR"
		},
		{
			"bufferView":4,
			"componentType":5126,
			"count":704,
			"max":[
				0.3999752998352051,
				0.5906548500061035,
				0.3810880184173584
			],
			"min":[
				-0.3773458003997803,
				-0.01809445023536682,
				-0.4100590944290161
			],
			"type":"VEC3"
		},
		{
			"bufferView":5,
			"componentType":5126,
			"count":704,
			"type":"VEC3"
		},
		{
			"bufferView":6,
			"componentType":5126,
			"count":704,
			"type":"VEC2"
		},
		{
			"bufferView":7,
			"componentType":5123,
			"count":1056,
			"type":"SCALAR"
		}
	],
	"bufferViews":[
		{
			"buffer":0,
			"byteLength":4488,
			"byteOffset":0,
			"target":34962
		},
		{
			"buffer":0,
			"byteLength":4488,
			"byteOffset":4488,
			"target":34962
		},
		{
			"buffer":0,
			"byteLength":2992,
			"byteOffset":8976,
			"target":34962
		},
		{
			"buffer":0,
			"byteLength":900,
			"byteOffset":11968,
			"target":34963
		},
		{
			"buffer":0,
			"byteLength":8448,
			"byteOffset":12868,
			"target":34962
		},
		{
			"buffer":0,
			"byteLength":8448,
			"byteOffset":21316,
			"target":34962
		},
		{
			"buffer":0,
			"byteLength":5632,
			"byteOffset":29764,
			"target":34962
		},
		{
			"buffer":0,
			"byteLength":2112,
			"byteOffset":35396,
			"target":34963
		}
	],
	"buffers":[
		{
			"byteLength":37508,
			"uri":"Tile_Misc_Tree01.bin"
		}
	]
}
