{
	"asset":{
		"generator":"Khronos glTF Blender I/O v4.1.63",
		"version":"2.0"
	},
	"scene":0,
	"scenes":[
		{
			"name":"Scene",
			"nodes":[
				0
			]
		}
	],
	"nodes":[
		{
			"mesh":0,
			"name":"LightpostSmall",
			"translation":[
				-0.0016379940789192915,
				0.19999998807907104,
				0
			]
		}
	],
	"materials":[
		{
			"doubleSided":true,
			"name":"LightpostMat",
			"pbrMetallicRoughness":{
				"baseColorFactor":[
					0.042244262993335724,
					0.042244262993335724,
					0.042244262993335724,
					1
				],
				"metallicFactor":0
			}
		},
		{
			"doubleSided":true,
			"name":"LightpostLightMat",
			"pbrMetallicRoughness":{
				"baseColorFactor":[
					0.800000011920929,
					0.800000011920929,
					0.800000011920929,
					1
				],
				"metallicFactor":0,
				"roughnessFactor":0.5
			}
		}
	],
	"meshes":[
		{
			"name":"Cube.038",
			"primitives":[
				{
					"attributes":{
						"POSITION":0,
						"NORMAL":1,
						"TEXCOORD_0":2
					},
					"indices":3,
					"material":0
				},
				{
					"attributes":{
						"POSITION":4,
						"NORMAL":5,
						"TEXCOORD_0":6
					},
					"indices":7,
					"material":1
				}
			]
		}
	],
	"accessors":[
		{
			"bufferView":0,
			"componentType":5126,
			"count":152,
			"max":[
				-0.39355069398880005,
				0.2636714279651642,
				0.013087449595332146
			],
			"min":[
				-0.4883069097995758,
				-0.01960928924381733,
				-0.01308738999068737
			],
			"type":"VEC3"
		},
		{
			"bufferView":1,
			"componentType":5126,
			"count":152,
			"type":"VEC3"
		},
		{
			"bufferView":2,
			"componentType":5126,
			"count":152,
			"type":"VEC2"
		},
		{
			"bufferView":3,
			"componentType":5123,
			"count":234,
			"type":"SCALAR"
		},
		{
			"bufferView":4,
			"componentType":5126,
			"count":12,
			"max":[
				-0.39355069398880005,
				0.24912849068641663,
				0.008276605978608131
			],
			"min":[
				-0.4149271547794342,
				0.24899666011333466,
				-0.008276546373963356
			],
			"type":"VEC3"
		},
		{
			"bufferView":5,
			"componentType":5126,
			"count":12,
			"type":"VEC3"
		},
		{
			"bufferView":6,
			"componentType":5126,
			"count":12,
			"type":"VEC2"
		},
		{
			"bufferView":7,
			"componentType":5123,
			"count":18,
			"type":"SCALAR"
		}
	],
	"bufferViews":[
		{
			"buffer":0,
			"byteLength":1824,
			"byteOffset":0,
			"target":34962
		},
		{
			"buffer":0,
			"byteLength":1824,
			"byteOffset":1824,
			"target":34962
		},
		{
			"buffer":0,
			"byteLength":1216,
			"byteOffset":3648,
			"target":34962
		},
		{
			"buffer":0,
			"byteLength":468,
			"byteOffset":4864,
			"target":34963
		},
		{
			"buffer":0,
			"byteLength":144,
			"byteOffset":5332,
			"target":34962
		},
		{
			"buffer":0,
			"byteLength":144,
			"byteOffset":5476,
			"target":34962
		},
		{
			"buffer":0,
			"byteLength":96,
			"byteOffset":5620,
			"target":34962
		},
		{
			"buffer":0,
			"byteLength":36,
			"byteOffset":5716,
			"target":34963
		}
	],
	"buffers":[
		{
			"byteLength":5752,
			"uri":"Tile_Lightpost_Small.bin"
		}
	]
}
