{
	"asset":{
		"generator":"Khronos glTF Blender I/O v4.1.63",
		"version":"2.0"
	},
	"scene":0,
	"scenes":[
		{
			"name":"Scene",
			"nodes":[
				0
			]
		}
	],
	"nodes":[
		{
			"mesh":0,
			"name":"BuildingGeneric02"
		}
	],
	"materials":[
		{
			"doubleSided":true,
			"name":"Base2",
			"pbrMetallicRoughness":{
				"baseColorFactor":[
					0.3132612705230713,
					0.18297220766544342,
					0.17227640748023987,
					1
				],
				"metallicFactor":0
			}
		},
		{
			"doubleSided":true,
			"name":"WindowTrim2",
			"pbrMetallicRoughness":{
				"baseColorFactor":[
					1,
					0.74410080909729,
					0.7524012923240662,
					1
				],
				"metallicFactor":0
			}
		},
		{
			"doubleSided":true,
			"name":"Windows",
			"pbrMetallicRoughness":{
				"baseColorFactor":[
					0.01667378470301628,
					0.017267955467104912,
					0.048627883195877075,
					1
				],
				"metallicFactor":0
			}
		},
		{
			"doubleSided":true,
			"name":"Trim",
			"pbrMetallicRoughness":{
				"baseColorFactor":[
					0.4761820435523987,
					0.4761820435523987,
					0.4761820435523987,
					1
				],
				"metallicFactor":0
			}
		},
		{
			"doubleSided":true,
			"name":"Metal",
			"pbrMetallicRoughness":{
				"baseColorFactor":[
					0.12233838438987732,
					0.12233838438987732,
					0.12233838438987732,
					1
				],
				"metallicFactor":0
			}
		}
	],
	"meshes":[
		{
			"name":"Plane.002",
			"primitives":[
				{
					"attributes":{
						"POSITION":0,
						"NORMAL":1,
						"TEXCOORD_0":2
					},
					"indices":3,
					"material":0
				},
				{
					"attributes":{
						"POSITION":4,
						"NORMAL":5,
						"TEXCOORD_0":6
					},
					"indices":7,
					"material":1
				},
				{
					"attributes":{
						"POSITION":8,
						"NORMAL":9,
						"TEXCOORD_0":10
					},
					"indices":11,
					"material":2
				},
				{
					"attributes":{
						"POSITION":12,
						"NORMAL":13,
						"TEXCOORD_0":14
					},
					"indices":15,
					"material":3
				},
				{
					"attributes":{
						"POSITION":16,
						"NORMAL":17,
						"TEXCOORD_0":18
					},
					"indices":19,
					"material":4
				}
			]
		}
	],
	"accessors":[
		{
			"bufferView":0,
			"componentType":5126,
			"count":974,
			"max":[
				0.44565027952194214,
				1.0294872522354126,
				0.42648085951805115
			],
			"min":[
				-0.44565027952194214,
				0.07902725785970688,
				-0.42648085951805115
			],
			"type":"VEC3"
		},
		{
			"bufferView":1,
			"componentType":5126,
			"count":974,
			"type":"VEC3"
		},
		{
			"bufferView":2,
			"componentType":5126,
			"count":974,
			"type":"VEC2"
		},
		{
			"bufferView":3,
			"componentType":5123,
			"count":1614,
			"type":"SCALAR"
		},
		{
			"bufferView":4,
			"componentType":5126,
			"count":789,
			"max":[
				0.44069457054138184,
				0.9547516107559204,
				0.42173832654953003
			],
			"min":[
				-0.44069457054138184,
				0.18480996787548065,
				-0.42173832654953003
			],
			"type":"VEC3"
		},
		{
			"bufferView":5,
			"componentType":5126,
			"count":789,
			"type":"VEC3"
		},
		{
			"bufferView":6,
			"componentType":5126,
			"count":789,
			"type":"VEC2"
		},
		{
			"bufferView":7,
			"componentType":5123,
			"count":1185,
			"type":"SCALAR"
		},
		{
			"bufferView":8,
			"componentType":5126,
			"count":216,
			"max":[
				0.41865986585617065,
				0.954534649848938,
				0.40065139532089233
			],
			"min":[
				-0.41865986585617065,
				-0.0003964707429986447,
				-0.40065139532089233
			],
			"type":"VEC3"
		},
		{
			"bufferView":9,
			"componentType":5126,
			"count":216,
			"type":"VEC3"
		},
		{
			"bufferView":10,
			"componentType":5126,
			"count":216,
			"type":"VEC2"
		},
		{
			"bufferView":11,
			"componentType":5123,
			"count":324,
			"type":"SCALAR"
		},
		{
			"bufferView":12,
			"componentType":5126,
			"count":566,
			"max":[
				0.4758449196815491,
				1.0485789775848389,
				0.4553767144680023
			],
			"min":[
				-0.4758449196815491,
				-0.0003964707429986447,
				-0.4553767144680023
			],
			"type":"VEC3"
		},
		{
			"bufferView":13,
			"componentType":5126,
			"count":566,
			"type":"VEC3"
		},
		{
			"bufferView":14,
			"componentType":5126,
			"count":566,
			"type":"VEC2"
		},
		{
			"bufferView":15,
			"componentType":5123,
			"count":1116,
			"type":"SCALAR"
		},
		{
			"bufferView":16,
			"componentType":5126,
			"count":330,
			"max":[
				0.20230822265148163,
				1.137142300605774,
				0.4190075993537903
			],
			"min":[
				-0.44839003682136536,
				-0.0003964707429986447,
				-0.4128205478191376
			],
			"type":"VEC3"
		},
		{
			"bufferView":17,
			"componentType":5126,
			"count":330,
			"type":"VEC3"
		},
		{
			"bufferView":18,
			"componentType":5126,
			"count":330,
			"type":"VEC2"
		},
		{
			"bufferView":19,
			"componentType":5123,
			"count":522,
			"type":"SCALAR"
		}
	],
	"bufferViews":[
		{
			"buffer":0,
			"byteLength":11688,
			"byteOffset":0,
			"target":34962
		},
		{
			"buffer":0,
			"byteLength":11688,
			"byteOffset":11688,
			"target":34962
		},
		{
			"buffer":0,
			"byteLength":7792,
			"byteOffset":23376,
			"target":34962
		},
		{
			"buffer":0,
			"byteLength":3228,
			"byteOffset":31168,
			"target":34963
		},
		{
			"buffer":0,
			"byteLength":9468,
			"byteOffset":34396,
			"target":34962
		},
		{
			"buffer":0,
			"byteLength":9468,
			"byteOffset":43864,
			"target":34962
		},
		{
			"buffer":0,
			"byteLength":6312,
			"byteOffset":53332,
			"target":34962
		},
		{
			"buffer":0,
			"byteLength":2370,
			"byteOffset":59644,
			"target":34963
		},
		{
			"buffer":0,
			"byteLength":2592,
			"byteOffset":62016,
			"target":34962
		},
		{
			"buffer":0,
			"byteLength":2592,
			"byteOffset":64608,
			"target":34962
		},
		{
			"buffer":0,
			"byteLength":1728,
			"byteOffset":67200,
			"target":34962
		},
		{
			"buffer":0,
			"byteLength":648,
			"byteOffset":68928,
			"target":34963
		},
		{
			"buffer":0,
			"byteLength":6792,
			"byteOffset":69576,
			"target":34962
		},
		{
			"buffer":0,
			"byteLength":6792,
			"byteOffset":76368,
			"target":34962
		},
		{
			"buffer":0,
			"byteLength":4528,
			"byteOffset":83160,
			"target":34962
		},
		{
			"buffer":0,
			"byteLength":2232,
			"byteOffset":87688,
			"target":34963
		},
		{
			"buffer":0,
			"byteLength":3960,
			"byteOffset":89920,
			"target":34962
		},
		{
			"buffer":0,
			"byteLength":3960,
			"byteOffset":93880,
			"target":34962
		},
		{
			"buffer":0,
			"byteLength":2640,
			"byteOffset":97840,
			"target":34962
		},
		{
			"buffer":0,
			"byteLength":1044,
			"byteOffset":100480,
			"target":34963
		}
	],
	"buffers":[
		{
			"byteLength":101524,
			"uri":"Tile_Building_Generic02.bin"
		}
	]
}
