{
	"asset":{
		"generator":"Khronos glTF Blender I/O v4.1.63",
		"version":"2.0"
	},
	"scene":0,
	"scenes":[
		{
			"name":"Scene",
			"nodes":[
				0
			]
		}
	],
	"nodes":[
		{
			"mesh":0,
			"name":"MiscTrees2"
		}
	],
	"materials":[
		{
			"doubleSided":true,
			"name":"Tree.Leaves",
			"pbrMetallicRoughness":{
				"baseColorFactor":[
					0.2949512004852295,
					0.5443484783172607,
					0.14333809912204742,
					1
				],
				"metallicFactor":0,
				"roughnessFactor":0.5
			}
		},
		{
			"doubleSided":true,
			"name":"Tree.Trunk",
			"pbrMetallicRoughness":{
				"baseColorFactor":[
					0.3132612705230713,
					0.18297220766544342,
					0.17227640748023987,
					1
				],
				"metallicFactor":0
			}
		}
	],
	"meshes":[
		{
			"name":"Cube.014",
			"primitives":[
				{
					"attributes":{
						"POSITION":0,
						"NORMAL":1,
						"TEXCOORD_0":2
					},
					"indices":3,
					"material":0
				},
				{
					"attributes":{
						"POSITION":4,
						"NORMAL":5,
						"TEXCOORD_0":6
					},
					"indices":7,
					"material":1
				}
			]
		}
	],
	"accessors":[
		{
			"bufferView":0,
			"componentType":5126,
			"count":210,
			"max":[
				0.30628085136413574,
				0.8742094039916992,
				0.4621814489364624
			],
			"min":[
				-0.3888424038887024,
				0.2734547257423401,
				-0.36215996742248535
			],
			"type":"VEC3"
		},
		{
			"bufferView":1,
			"componentType":5126,
			"count":210,
			"type":"VEC3"
		},
		{
			"bufferView":2,
			"componentType":5126,
			"count":210,
			"type":"VEC2"
		},
		{
			"bufferView":3,
			"componentType":5123,
			"count":252,
			"type":"SCALAR"
		},
		{
			"bufferView":4,
			"componentType":5126,
			"count":412,
			"max":[
				0.25807827711105347,
				0.6299243569374084,
				0.36667999625205994
			],
			"min":[
				-0.3225483000278473,
				-0.024843156337738037,
				-0.28119802474975586
			],
			"type":"VEC3"
		},
		{
			"bufferView":5,
			"componentType":5126,
			"count":412,
			"type":"VEC3"
		},
		{
			"bufferView":6,
			"componentType":5126,
			"count":412,
			"type":"VEC2"
		},
		{
			"bufferView":7,
			"componentType":5123,
			"count":618,
			"type":"SCALAR"
		}
	],
	"bufferViews":[
		{
			"buffer":0,
			"byteLength":2520,
			"byteOffset":0,
			"target":34962
		},
		{
			"buffer":0,
			"byteLength":2520,
			"byteOffset":2520,
			"target":34962
		},
		{
			"buffer":0,
			"byteLength":1680,
			"byteOffset":5040,
			"target":34962
		},
		{
			"buffer":0,
			"byteLength":504,
			"byteOffset":6720,
			"target":34963
		},
		{
			"buffer":0,
			"byteLength":4944,
			"byteOffset":7224,
			"target":34962
		},
		{
			"buffer":0,
			"byteLength":4944,
			"byteOffset":12168,
			"target":34962
		},
		{
			"buffer":0,
			"byteLength":3296,
			"byteOffset":17112,
			"target":34962
		},
		{
			"buffer":0,
			"byteLength":1236,
			"byteOffset":20408,
			"target":34963
		}
	],
	"buffers":[
		{
			"byteLength":21644,
			"uri":"Tile_Misc_Tree02.bin"
		}
	]
}
