{
	"asset":{
		"generator":"Khronos glTF Blender I/O v4.1.63",
		"version":"2.0"
	},
	"scene":0,
	"scenes":[
		{
			"name":"Scene",
			"nodes":[
				0
			]
		}
	],
	"nodes":[
		{
			"mesh":0,
			"name":"LightpostLarge",
			"translation":[
				-0.0016379940789192915,
				0.19999998807907104,
				0
			]
		}
	],
	"materials":[
		{
			"doubleSided":true,
			"name":"LightpostMat",
			"pbrMetallicRoughness":{
				"baseColorFactor":[
					0.042244262993335724,
					0.042244262993335724,
					0.042244262993335724,
					1
				],
				"metallicFactor":0
			}
		},
		{
			"doubleSided":true,
			"name":"LightpostLightMat",
			"pbrMetallicRoughness":{
				"baseColorFactor":[
					0.800000011920929,
					0.800000011920929,
					0.800000011920929,
					1
				],
				"metallicFactor":0,
				"roughnessFactor":0.5
			}
		}
	],
	"meshes":[
		{
			"name":"Cube.040",
			"primitives":[
				{
					"attributes":{
						"POSITION":0,
						"NORMAL":1,
						"TEXCOORD_0":2
					},
					"indices":3,
					"material":0
				},
				{
					"attributes":{
						"POSITION":4,
						"NORMAL":5,
						"TEXCOORD_0":6
					},
					"indices":7,
					"material":1
				}
			]
		}
	],
	"accessors":[
		{
			"bufferView":0,
			"componentType":5126,
			"count":154,
			"max":[
				-0.39268460869789124,
				0.3279920816421509,
				0.01830645464360714
			],
			"min":[
				-0.4921129047870636,
				-0.02011849358677864,
				-0.018306395038962364
			],
			"type":"VEC3"
		},
		{
			"bufferView":1,
			"componentType":5126,
			"count":154,
			"type":"VEC3"
		},
		{
			"bufferView":2,
			"componentType":5126,
			"count":154,
			"type":"VEC2"
		},
		{
			"bufferView":3,
			"componentType":5123,
			"count":234,
			"type":"SCALAR"
		},
		{
			"bufferView":4,
			"componentType":5126,
			"count":12,
			"max":[
				-0.39268460869789124,
				0.31225401163101196,
				0.009963027201592922
			],
			"min":[
				-0.415793240070343,
				0.3121221959590912,
				-0.009962967596948147
			],
			"type":"VEC3"
		},
		{
			"bufferView":5,
			"componentType":5126,
			"count":12,
			"type":"VEC3"
		},
		{
			"bufferView":6,
			"componentType":5126,
			"count":12,
			"type":"VEC2"
		},
		{
			"bufferView":7,
			"componentType":5123,
			"count":18,
			"type":"SCALAR"
		}
	],
	"bufferViews":[
		{
			"buffer":0,
			"byteLength":1848,
			"byteOffset":0,
			"target":34962
		},
		{
			"buffer":0,
			"byteLength":1848,
			"byteOffset":1848,
			"target":34962
		},
		{
			"buffer":0,
			"byteLength":1232,
			"byteOffset":3696,
			"target":34962
		},
		{
			"buffer":0,
			"byteLength":468,
			"byteOffset":4928,
			"target":34963
		},
		{
			"buffer":0,
			"byteLength":144,
			"byteOffset":5396,
			"target":34962
		},
		{
			"buffer":0,
			"byteLength":144,
			"byteOffset":5540,
			"target":34962
		},
		{
			"buffer":0,
			"byteLength":96,
			"byteOffset":5684,
			"target":34962
		},
		{
			"buffer":0,
			"byteLength":36,
			"byteOffset":5780,
			"target":34963
		}
	],
	"buffers":[
		{
			"byteLength":5816,
			"uri":"Tile_Lightpost_Large.bin"
		}
	]
}
