{
	"asset":{
		"generator":"Khronos glTF Blender I/O v4.1.63",
		"version":"2.0"
	},
	"scene":0,
	"scenes":[
		{
			"name":"Scene",
			"nodes":[
				0
			]
		}
	],
	"nodes":[
		{
			"mesh":0,
			"name":"BuildingHouse",
			"translation":[
				-0.0012435003882274032,
				0,
				0.000328547292156145
			]
		}
	],
	"materials":[
		{
			"doubleSided":true,
			"name":"HouseBase",
			"pbrMetallicRoughness":{
				"baseColorFactor":[
					0.6575416922569275,
					0.6725255250930786,
					0.6792343854904175,
					1
				],
				"metallicFactor":0
			}
		},
		{
			"doubleSided":true,
			"name":"Windows",
			"pbrMetallicRoughness":{
				"baseColorFactor":[
					0.01667378470301628,
					0.017267955467104912,
					0.048627883195877075,
					1
				],
				"metallicFactor":0
			}
		},
		{
			"doubleSided":true,
			"name":"WindowTrim",
			"pbrMetallicRoughness":{
				"baseColorFactor":[
					0.8039894104003906,
					0.8727813959121704,
					1,
					1
				],
				"metallicFactor":0
			}
		},
		{
			"doubleSided":true,
			"name":"HouseRoofDoor",
			"pbrMetallicRoughness":{
				"baseColorFactor":[
					0.10237966477870941,
					0.13044585287570953,
					0.19564366340637207,
					1
				],
				"metallicFactor":0
			}
		},
		{
			"doubleSided":true,
			"name":"HouseDoor2",
			"pbrMetallicRoughness":{
				"baseColorFactor":[
					0.46894606947898865,
					0.3278486430644989,
					0.11627629399299622,
					1
				],
				"metallicFactor":0
			}
		},
		{
			"doubleSided":true,
			"name":"Bushes",
			"pbrMetallicRoughness":{
				"baseColorFactor":[
					0.2949512004852295,
					0.5443484783172607,
					0.14333809912204742,
					1
				],
				"metallicFactor":0,
				"roughnessFactor":0.5
			}
		}
	],
	"meshes":[
		{
			"name":"Plane.004",
			"primitives":[
				{
					"attributes":{
						"POSITION":0,
						"NORMAL":1,
						"TEXCOORD_0":2
					},
					"indices":3,
					"material":0
				},
				{
					"attributes":{
						"POSITION":4,
						"NORMAL":5,
						"TEXCOORD_0":6
					},
					"indices":7,
					"material":1
				},
				{
					"attributes":{
						"POSITION":8,
						"NORMAL":9,
						"TEXCOORD_0":10
					},
					"indices":11,
					"material":2
				},
				{
					"attributes":{
						"POSITION":12,
						"NORMAL":13,
						"TEXCOORD_0":14
					},
					"indices":15,
					"material":3
				},
				{
					"attributes":{
						"POSITION":16,
						"NORMAL":17,
						"TEXCOORD_0":18
					},
					"indices":19,
					"material":4
				},
				{
					"attributes":{
						"POSITION":20,
						"NORMAL":21,
						"TEXCOORD_0":22
					},
					"indices":23,
					"material":5
				}
			]
		}
	],
	"accessors":[
		{
			"bufferView":0,
			"componentType":5126,
			"count":128,
			"max":[
				0.2972164750099182,
				0.6869710683822632,
				0.283273845911026
			],
			"min":[
				-0.2972165048122406,
				-0.006952852010726929,
				-0.2830422520637512
			],
			"type":"VEC3"
		},
		{
			"bufferView":1,
			"componentType":5126,
			"count":128,
			"type":"VEC3"
		},
		{
			"bufferView":2,
			"componentType":5126,
			"count":128,
			"type":"VEC2"
		},
		{
			"bufferView":3,
			"componentType":5123,
			"count":300,
			"type":"SCALAR"
		},
		{
			"bufferView":4,
			"componentType":5126,
			"count":16,
			"max":[
				0.0964822769165039,
				0.4587104916572571,
				0.2748068869113922
			],
			"min":[
				-0.09525087475776672,
				0.30862438678741455,
				0.2707716226577759
			],
			"type":"VEC3"
		},
		{
			"bufferView":5,
			"componentType":5126,
			"count":16,
			"type":"VEC3"
		},
		{
			"bufferView":6,
			"componentType":5126,
			"count":16,
			"type":"VEC2"
		},
		{
			"bufferView":7,
			"componentType":5123,
			"count":24,
			"type":"SCALAR"
		},
		{
			"bufferView":8,
			"componentType":5126,
			"count":68,
			"max":[
				0.09658122062683105,
				0.4600757360458374,
				0.283273845911026
			],
			"min":[
				-0.09525087475776672,
				0.3072912096977234,
				0.2707716226577759
			],
			"type":"VEC3"
		},
		{
			"bufferView":9,
			"componentType":5126,
			"count":68,
			"type":"VEC3"
		},
		{
			"bufferView":10,
			"componentType":5126,
			"count":68,
			"type":"VEC2"
		},
		{
			"bufferView":11,
			"componentType":5123,
			"count":102,
			"type":"SCALAR"
		},
		{
			"bufferView":12,
			"componentType":5126,
			"count":159,
			"max":[
				0.36780720949172974,
				0.7355867624282837,
				0.3710135817527771
			],
			"min":[
				-0.3715234696865082,
				-0.006952852010726929,
				-0.3710324168205261
			],
			"type":"VEC3"
		},
		{
			"bufferView":13,
			"componentType":5126,
			"count":159,
			"type":"VEC3"
		},
		{
			"bufferView":14,
			"componentType":5126,
			"count":159,
			"type":"VEC2"
		},
		{
			"bufferView":15,
			"componentType":5123,
			"count":267,
			"type":"SCALAR"
		},
		{
			"bufferView":16,
			"componentType":5126,
			"count":23,
			"max":[
				0.07527533173561096,
				0.13257651031017303,
				0.3140893876552582
			],
			"min":[
				0.03776097297668457,
				0.0942627489566803,
				0.2984890937805176
			],
			"type":"VEC3"
		},
		{
			"bufferView":17,
			"componentType":5126,
			"count":23,
			"type":"VEC3"
		},
		{
			"bufferView":18,
			"componentType":5126,
			"count":23,
			"type":"VEC2"
		},
		{
			"bufferView":19,
			"componentType":5123,
			"count":33,
			"type":"SCALAR"
		},
		{
			"bufferView":20,
			"componentType":5126,
			"count":352,
			"max":[
				0.3161275386810303,
				0.09468721598386765,
				0.4136386215686798
			],
			"min":[
				-0.32710880041122437,
				-0.018682077527046204,
				0.2691810727119446
			],
			"type":"VEC3"
		},
		{
			"bufferView":21,
			"componentType":5126,
			"count":352,
			"type":"VEC3"
		},
		{
			"bufferView":22,
			"componentType":5126,
			"count":352,
			"type":"VEC2"
		},
		{
			"bufferView":23,
			"componentType":5123,
			"count":528,
			"type":"SCALAR"
		}
	],
	"bufferViews":[
		{
			"buffer":0,
			"byteLength":1536,
			"byteOffset":0,
			"target":34962
		},
		{
			"buffer":0,
			"byteLength":1536,
			"byteOffset":1536,
			"target":34962
		},
		{
			"buffer":0,
			"byteLength":1024,
			"byteOffset":3072,
			"target":34962
		},
		{
			"buffer":0,
			"byteLength":600,
			"byteOffset":4096,
			"target":34963
		},
		{
			"buffer":0,
			"byteLength":192,
			"byteOffset":4696,
			"target":34962
		},
		{
			"buffer":0,
			"byteLength":192,
			"byteOffset":4888,
			"target":34962
		},
		{
			"buffer":0,
			"byteLength":128,
			"byteOffset":5080,
			"target":34962
		},
		{
			"buffer":0,
			"byteLength":48,
			"byteOffset":5208,
			"target":34963
		},
		{
			"buffer":0,
			"byteLength":816,
			"byteOffset":5256,
			"target":34962
		},
		{
			"buffer":0,
			"byteLength":816,
			"byteOffset":6072,
			"target":34962
		},
		{
			"buffer":0,
			"byteLength":544,
			"byteOffset":6888,
			"target":34962
		},
		{
			"buffer":0,
			"byteLength":204,
			"byteOffset":7432,
			"target":34963
		},
		{
			"buffer":0,
			"byteLength":1908,
			"byteOffset":7636,
			"target":34962
		},
		{
			"buffer":0,
			"byteLength":1908,
			"byteOffset":9544,
			"target":34962
		},
		{
			"buffer":0,
			"byteLength":1272,
			"byteOffset":11452,
			"target":34962
		},
		{
			"buffer":0,
			"byteLength":534,
			"byteOffset":12724,
			"target":34963
		},
		{
			"buffer":0,
			"byteLength":276,
			"byteOffset":13260,
			"target":34962
		},
		{
			"buffer":0,
			"byteLength":276,
			"byteOffset":13536,
			"target":34962
		},
		{
			"buffer":0,
			"byteLength":184,
			"byteOffset":13812,
			"target":34962
		},
		{
			"buffer":0,
			"byteLength":66,
			"byteOffset":13996,
			"target":34963
		},
		{
			"buffer":0,
			"byteLength":4224,
			"byteOffset":14064,
			"target":34962
		},
		{
			"buffer":0,
			"byteLength":4224,
			"byteOffset":18288,
			"target":34962
		},
		{
			"buffer":0,
			"byteLength":2816,
			"byteOffset":22512,
			"target":34962
		},
		{
			"buffer":0,
			"byteLength":1056,
			"byteOffset":25328,
			"target":34963
		}
	],
	"buffers":[
		{
			"byteLength":26384,
			"uri":"Tile_Building_House01.bin"
		}
	]
}
