{
	"asset":{
		"generator":"Khronos glTF Blender I/O v4.1.63",
		"version":"2.0"
	},
	"scene":0,
	"scenes":[
		{
			"name":"Scene",
			"nodes":[
				0
			]
		}
	],
	"nodes":[
		{
			"mesh":0,
			"name":"BuildingGeneric01"
		}
	],
	"materials":[
		{
			"doubleSided":true,
			"name":"Base",
			"pbrMetallicRoughness":{
				"baseColorFactor":[
					0.20858529210090637,
					0.2561246454715729,
					0.31071653962135315,
					1
				],
				"metallicFactor":0
			}
		},
		{
			"doubleSided":true,
			"name":"WindowTrim",
			"pbrMetallicRoughness":{
				"baseColorFactor":[
					0.8039894104003906,
					0.8727813959121704,
					1,
					1
				],
				"metallicFactor":0
			}
		},
		{
			"doubleSided":true,
			"name":"Windows",
			"pbrMetallicRoughness":{
				"baseColorFactor":[
					0.01667378470301628,
					0.017267955467104912,
					0.048627883195877075,
					1
				],
				"metallicFactor":0
			}
		},
		{
			"doubleSided":true,
			"name":"Trim",
			"pbrMetallicRoughness":{
				"baseColorFactor":[
					0.4761820435523987,
					0.4761820435523987,
					0.4761820435523987,
					1
				],
				"metallicFactor":0
			}
		},
		{
			"doubleSided":true,
			"name":"Metal",
			"pbrMetallicRoughness":{
				"baseColorFactor":[
					0.12233838438987732,
					0.12233838438987732,
					0.12233838438987732,
					1
				],
				"metallicFactor":0
			}
		}
	],
	"meshes":[
		{
			"name":"Plane",
			"primitives":[
				{
					"attributes":{
						"POSITION":0,
						"NORMAL":1,
						"TEXCOORD_0":2
					},
					"indices":3,
					"material":0
				},
				{
					"attributes":{
						"POSITION":4,
						"NORMAL":5,
						"TEXCOORD_0":6
					},
					"indices":7,
					"material":1
				},
				{
					"attributes":{
						"POSITION":8,
						"NORMAL":9,
						"TEXCOORD_0":10
					},
					"indices":11,
					"material":2
				},
				{
					"attributes":{
						"POSITION":12,
						"NORMAL":13,
						"TEXCOORD_0":14
					},
					"indices":15,
					"material":3
				},
				{
					"attributes":{
						"POSITION":16,
						"NORMAL":17,
						"TEXCOORD_0":18
					},
					"indices":19,
					"material":4
				}
			]
		}
	],
	"accessors":[
		{
			"bufferView":0,
			"componentType":5126,
			"count":659,
			"max":[
				0.4187430143356323,
				1.104756236076355,
				0.37817180156707764
			],
			"min":[
				-0.4187430143356323,
				0.08480513095855713,
				-0.37817180156707764
			],
			"type":"VEC3"
		},
		{
			"bufferView":1,
			"componentType":5126,
			"count":659,
			"type":"VEC3"
		},
		{
			"bufferView":2,
			"componentType":5126,
			"count":659,
			"type":"VEC2"
		},
		{
			"bufferView":3,
			"componentType":5123,
			"count":1614,
			"type":"SCALAR"
		},
		{
			"bufferView":4,
			"componentType":5126,
			"count":789,
			"max":[
				0.4140865206718445,
				1.0273122787475586,
				0.3739664852619171
			],
			"min":[
				-0.4140865206718445,
				0.19832196831703186,
				-0.3739664852619171
			],
			"type":"VEC3"
		},
		{
			"bufferView":5,
			"componentType":5126,
			"count":789,
			"type":"VEC3"
		},
		{
			"bufferView":6,
			"componentType":5126,
			"count":789,
			"type":"VEC2"
		},
		{
			"bufferView":7,
			"componentType":5123,
			"count":1185,
			"type":"SCALAR"
		},
		{
			"bufferView":8,
			"componentType":5126,
			"count":216,
			"max":[
				0.39338219165802,
				1.0273122787475586,
				0.3552681505680084
			],
			"min":[
				-0.39338219165802,
				-0.00042551755905151367,
				-0.3552681505680084
			],
			"type":"VEC3"
		},
		{
			"bufferView":9,
			"componentType":5126,
			"count":216,
			"type":"VEC3"
		},
		{
			"bufferView":10,
			"componentType":5126,
			"count":216,
			"type":"VEC2"
		},
		{
			"bufferView":11,
			"componentType":5123,
			"count":324,
			"type":"SCALAR"
		},
		{
			"bufferView":12,
			"componentType":5126,
			"count":474,
			"max":[
				0.44711458683013916,
				1.125243902206421,
				0.403794527053833
			],
			"min":[
				-0.44711458683013916,
				-0.00042551755905151367,
				-0.403794527053833
			],
			"type":"VEC3"
		},
		{
			"bufferView":13,
			"componentType":5126,
			"count":474,
			"type":"VEC3"
		},
		{
			"bufferView":14,
			"componentType":5126,
			"count":474,
			"type":"VEC2"
		},
		{
			"bufferView":15,
			"componentType":5123,
			"count":1116,
			"type":"SCALAR"
		},
		{
			"bufferView":16,
			"componentType":5126,
			"count":318,
			"max":[
				0.19009335339069366,
				1.2202823162078857,
				0.37154507637023926
			],
			"min":[
				-0.42131736874580383,
				-0.00042551755905151367,
				-0.3660588562488556
			],
			"type":"VEC3"
		},
		{
			"bufferView":17,
			"componentType":5126,
			"count":318,
			"type":"VEC3"
		},
		{
			"bufferView":18,
			"componentType":5126,
			"count":318,
			"type":"VEC2"
		},
		{
			"bufferView":19,
			"componentType":5123,
			"count":522,
			"type":"SCALAR"
		}
	],
	"bufferViews":[
		{
			"buffer":0,
			"byteLength":7908,
			"byteOffset":0,
			"target":34962
		},
		{
			"buffer":0,
			"byteLength":7908,
			"byteOffset":7908,
			"target":34962
		},
		{
			"buffer":0,
			"byteLength":5272,
			"byteOffset":15816,
			"target":34962
		},
		{
			"buffer":0,
			"byteLength":3228,
			"byteOffset":21088,
			"target":34963
		},
		{
			"buffer":0,
			"byteLength":9468,
			"byteOffset":24316,
			"target":34962
		},
		{
			"buffer":0,
			"byteLength":9468,
			"byteOffset":33784,
			"target":34962
		},
		{
			"buffer":0,
			"byteLength":6312,
			"byteOffset":43252,
			"target":34962
		},
		{
			"buffer":0,
			"byteLength":2370,
			"byteOffset":49564,
			"target":34963
		},
		{
			"buffer":0,
			"byteLength":2592,
			"byteOffset":51936,
			"target":34962
		},
		{
			"buffer":0,
			"byteLength":2592,
			"byteOffset":54528,
			"target":34962
		},
		{
			"buffer":0,
			"byteLength":1728,
			"byteOffset":57120,
			"target":34962
		},
		{
			"buffer":0,
			"byteLength":648,
			"byteOffset":58848,
			"target":34963
		},
		{
			"buffer":0,
			"byteLength":5688,
			"byteOffset":59496,
			"target":34962
		},
		{
			"buffer":0,
			"byteLength":5688,
			"byteOffset":65184,
			"target":34962
		},
		{
			"buffer":0,
			"byteLength":3792,
			"byteOffset":70872,
			"target":34962
		},
		{
			"buffer":0,
			"byteLength":2232,
			"byteOffset":74664,
			"target":34963
		},
		{
			"buffer":0,
			"byteLength":3816,
			"byteOffset":76896,
			"target":34962
		},
		{
			"buffer":0,
			"byteLength":3816,
			"byteOffset":80712,
			"target":34962
		},
		{
			"buffer":0,
			"byteLength":2544,
			"byteOffset":84528,
			"target":34962
		},
		{
			"buffer":0,
			"byteLength":1044,
			"byteOffset":87072,
			"target":34963
		}
	],
	"buffers":[
		{
			"byteLength":88116,
			"uri":"Tile_Building_Generic01.bin"
		}
	]
}
